# xmcd CD database file generated by LOLA_Freedb v0.9beta0
# 
# Track frame offsets:
#      150
#      9318
#      27775
#      37247
#      52079
#      65745
#      79895
#      95866
#      108898
#      123092
#      136915
#      149920
# 
# Disc length: 2173 seconds
# 
# Revision: 0 
# Processed by: cddbd v1.5.1PL2 Copyright (c) Steve Scherf et al.
# Submitted via: LOLA_Freedb v0.9beta0
# 
DISCID=ae087b0c
DTITLE=Tom Jones - Tom Jones
DYEAR=1900
DGENRE=
TTITLE0=It's not unusual
TTITLE1=I'll never fall in Love again
TTITLE2=What's new Pussycat
TTITLE3=Delilah
TTITLE4=Green, green grass of home
TTITLE5=Love me tonight
TTITLE6=Detroit City
TTITLE7=Funny familiar forgaotten feelings
TTITLE8=I can't stop loving you
TTITLE9=I'm coming home
TTITLE10=Help yourself
TTITLE11=Keep on running
EXTD=
EXTT0=
EXTT1=
EXTT2=
EXTT3=
EXTT4=
EXTT5=
EXTT6=
EXTT7=
EXTT8=
EXTT9=
EXTT10=
EXTT11=
PLAYORDER=
